<svg xmlns="http://www.w3.org/2000/svg" viewBox="0 0 125 112.3"><defs><style>.cls-1{fill:#d8dbe2}.cls-2{fill:#f0f8ff}.cls-3{fill:#b8dfe7}.cls-4{fill:#a3bbc5}.cls-5{fill:#9bb3bf}</style></defs><path class="cls-1" d="M79.08 98.213c-4.207.555-8.453 1.474-12.619 2.289-4.359.854-8.624.751-13.049 1.074-9.091.664-17.741 3.018-26.851 2.71l-2.6-20.964c-1.095-9.977-1.86-19.991-2.9-29.977-.753-7.2-2.38-14.376-2.591-21.621 4.444-.766 9.141-.834 13.643-1.347 5.571-.636 11.241-1.17 16.75-1.917 5.7-.774 11.4-1.568 17.108-2.281 1.289-.161 2.591-.2 3.881-.355 1.608-.194 2.1-.726 2.8.625.558 1.093.441 3.174.62 4.4 1.029 7.062 1.71 14.162 2.555 21.249.94 7.878 2.672 16.053 2.881 23.979.143 5.423.7 11.066.92 16.578a21.614 21.614 0 00.753 5.395q-.655.078-1.301.163z"/><path class="cls-2" d="M78.177 96.939c-4.207.555-8.452 1.474-12.618 2.289-4.36.854-8.625.752-13.05 1.075-9.091.663-17.741 3.017-26.851 2.709l-2.6-20.963c-1.095-9.978-1.859-19.992-2.9-29.977-.753-7.2-2.379-14.377-2.59-21.621 4.444-.766 9.14-.835 13.643-1.348 5.57-.636 11.241-1.17 16.749-1.917 5.7-.774 11.4-1.568 17.108-2.281 1.29-.161 2.592-.2 3.882-.355 1.607-.194 2.1-.726 2.794.625.559 1.093.441 3.175.62 4.4 1.03 7.062 1.711 14.162 2.556 21.249.939 7.879 2.671 16.053 2.881 23.979.143 5.423.7 11.066.92 16.578a21.567 21.567 0 00.752 5.395q-.648.078-1.296.163z"/><path class="cls-3" d="M27.959 41.577l1.818-2.562a1.715 1.715 0 01.779.806l-1.611 2.625c-.15.245-.352.519-.639.512a.773.773 0 01-.372-.141c-.662-.4-2.31-1.355-1.271-2.2.431.318.844.665 1.296.96z"/><path class="cls-1" d="M25.4 43.524a2.661 2.661 0 01.021.92 2.7 2.7 0 01-.973 1.336l-.77-8.186a75.636 75.636 0 018.333-1.325 39.419 39.419 0 01.819 8.448 74.016 74.016 0 01-8.169 1.011 1.345 1.345 0 01.815-1.189 4.11 4.11 0 011.487-.306q2.454-.2 4.888-.595a30.689 30.689 0 01-.68-5.384.729.729 0 00-.124-.465c-.168-.19-.468-.15-.716-.1-1.876.389-3.8.2-5.641.505a40.3 40.3 0 00.71 5.33z"/><path class="cls-3" d="M29.7 57.479l1.818-2.562a1.715 1.715 0 01.779.806l-1.607 2.626c-.149.244-.352.519-.639.511a.782.782 0 01-.372-.14c-.662-.4-2.31-1.355-1.271-2.2.431.318.844.664 1.292.959z"/><path class="cls-1" d="M27.141 59.427a2.655 2.655 0 01.021.919 2.7 2.7 0 01-.973 1.336l-.77-8.186a75.636 75.636 0 018.333-1.325 39.431 39.431 0 01.819 8.448A73.788 73.788 0 0126.4 61.63a1.343 1.343 0 01.814-1.189 4.11 4.11 0 011.487-.306q2.454-.2 4.888-.595a30.665 30.665 0 01-.68-5.383.732.732 0 00-.124-.466c-.167-.19-.468-.15-.716-.1-1.876.389-3.8.2-5.641.505a40.478 40.478 0 00.713 5.331z"/><path class="cls-3" d="M31.565 74.436l1.818-2.562a1.724 1.724 0 01.779.806l-1.611 2.626c-.15.244-.352.519-.639.512a.794.794 0 01-.372-.141c-.662-.4-2.31-1.355-1.271-2.2.431.323.844.664 1.296.959z"/><path class="cls-1" d="M29 76.384a2.655 2.655 0 01.021.919 2.7 2.7 0 01-.973 1.337l-.77-8.186a75.4 75.4 0 018.333-1.326 39.434 39.434 0 01.819 8.449 74.016 74.016 0 01-8.169 1.011 1.346 1.346 0 01.815-1.19 4.109 4.109 0 011.487-.3q2.454-.2 4.888-.595a30.689 30.689 0 01-.68-5.384.728.728 0 00-.124-.465c-.168-.19-.468-.151-.716-.1-1.876.388-3.8.2-5.641.5a40.455 40.455 0 00.71 5.33zM96.972 101.284c-4.226-.389-8.569-.432-12.812-.558-4.441-.131-8.578-1.174-12.964-1.838-9.013-1.363-17.969-.981-26.785-3.3l2.1-21.019c1.138-9.973 2.608-19.908 3.8-29.877.858-7.189.859-14.547 2.255-21.658 4.5.235 9.1 1.207 13.6 1.7 5.572.612 11.221 1.345 16.758 1.835 5.731.507 11.464.992 17.189 1.559 1.293.128 2.571.379 3.864.512 1.61.166 2.212-.242 2.587 1.228.3 1.189-.272 3.193-.369 4.432-.558 7.115-1.464 14.19-2.207 21.288-.826 7.891-.945 16.246-2.494 24.023-1.059 5.32-1.762 10.946-2.768 16.37a21.544 21.544 0 00-.46 5.428c-.428-.041-.861-.085-1.294-.125z"/><path class="cls-2" d="M96.374 99.842c-4.226-.389-8.57-.432-12.813-.558-4.44-.131-8.577-1.174-12.964-1.838-9.012-1.363-17.969-.981-26.785-3.3l2.1-21.019c1.139-9.973 2.608-19.908 3.8-29.877.858-7.189.858-14.547 2.255-21.658 4.5.235 9.1 1.208 13.6 1.7 5.573.612 11.222 1.346 16.759 1.835 5.73.507 11.463.992 17.189 1.559 1.293.128 2.571.379 3.863.512 1.611.166 2.213-.242 2.587 1.228.3 1.189-.272 3.193-.369 4.432-.557 7.115-1.464 14.19-2.207 21.288-.826 7.891-.945 16.246-2.493 24.023-1.06 5.32-1.763 10.946-2.769 16.37a21.544 21.544 0 00-.459 5.428q-.644-.067-1.294-.125z"/><path class="cls-4" d="M69.053 34.047a182.066 182.066 0 0124.523 3.078c.711.139 1.7.11 1.854-.6.167-.784-.915-1.167-1.715-1.216q-7.8-.476-15.544-1.523-3.9-.528-7.789-1.2c-.634-.11-2.474-.8-2.977-.144-.824 1.084.968 1.566 1.648 1.605zM69.73 38.379c.6.083 1.173.13 1.6.209 2.446.456 4.956.654 7.431.876 2.76.249 5.524.455 8.275.785 1.3.156 7.014 1.838 7.709.787 1.561-2.36-4.749-2.525-5.819-2.655-2.973-.359-5.96-.591-8.945-.837a44.183 44.183 0 01-7.046-.718 13.231 13.231 0 00-5.964-.315c-.233 1.35 1.785 1.732 2.758 1.868zM65.58 47.466a199.976 199.976 0 0127.761 2.881l.239-1.37q-7.642-.528-15.263-1.344-3.774-.405-7.54-.879c-1.235-.156-2.529-.463-3.771-.494-.382-.009-.782-.206-1.112.068-.163.136-.244 1.14-.314 1.138zM65.064 51.29q14.238 1.547 28.45 3.329l-.214-1.478q-7.542-.943-15.106-1.7-3.781-.38-7.567-.712-1.823-.159-3.646-.309c-.273-.023-1.45-.288-1.683-.08a1.821 1.821 0 00-.234.95zM64.891 55.523a.8.8 0 00.513.118c3.358.025 6.64.983 9.987 1.255a49.144 49.144 0 006.478-.047.764.764 0 00-.241-1.083 1.477 1.477 0 00-.535-.132l-9.754-1.124c-1.493-.172-2.986-.345-4.485-.457-.435-.033-1.6-.312-1.933 0a1.642 1.642 0 00-.03 1.47z"/><path class="cls-5" d="M92.573 67.306a1.089 1.089 0 00-.522-1.379 3.211 3.211 0 00-1.594-.281 136.51 136.51 0 01-14.769-.893q-3.608-.415-7.19-1.021c-1.479-.251-4.906-1.757-4.561.847 4.612 1.109 9.679 1.312 14.4 1.754q3.587.336 7.181.581c.766.052 6.782.872 7.055.392zM82.024 70.481c.182.021.4.027.509-.119a.529.529 0 00.074-.324l.015-1.241-15.079-1.177c-1.18-.092-4.17-1.348-3.819.8 5.904 1.256 12.293 1.395 18.3 2.061z"/><path class="cls-1" d="M93.655 99.938c-4.894.278-9.865.973-14.734 1.555-5.1.609-10 .125-15.127.117-10.53-.015-20.7 1.954-31.167.817l-1.2-24.375c-.402-11.589-.427-23.192-.769-34.786-.249-8.36-1.507-16.767-1.129-25.132 5.186-.5 10.6-.176 15.834-.382 6.472-.254 13.052-.383 19.462-.771 6.634-.4 13.268-.828 19.906-1.16 1.5-.074 3-.007 4.5-.075 1.869-.086 2.487-.656 3.166.96.55 1.307.236 3.7.337 5.127.58 8.224.755 16.463 1.12 24.7.407 9.158 1.7 18.724 1.261 27.875-.3 6.26-.14 12.808-.362 19.178a24.882 24.882 0 00.4 6.28c-.495.019-.996.044-1.498.072z"/><path d="M92.725 98.393c-4.895.278-9.865.972-14.734 1.555-5.1.609-10 .125-15.127.117-10.531-.015-20.7 1.954-31.168.817L30.5 76.507c-.4-11.59-.426-23.192-.771-34.786-.25-8.361-1.509-16.767-1.129-25.132 5.186-.5 10.6-.177 15.834-.382 6.472-.254 13.051-.383 19.461-.771 6.635-.4 13.268-.828 19.907-1.16 1.5-.075 3-.007 4.5-.075 1.869-.086 2.486-.656 3.166.96.549 1.307.235 3.7.336 5.127.581 8.224.755 16.463 1.121 24.7.406 9.158 1.7 18.724 1.261 27.874-.3 6.261-.141 12.809-.363 19.178a24.933 24.933 0 00.4 6.281q-.745.029-1.498.072z" fill="#fff"/><path class="cls-1" d="M50.258 27.953c4.156-.377 8.3-.7 12.506-.836q4.317-.138 8.634-.237c2.706-.062 5.723.25 8.378-.2.14-.023-.031-1.413-.024-1.6-2.343.03-4.712.266-7.08.295-2.582.031-5.165 0-7.747.058q-7.047.168-14.082.636c-.621.041-2.718-.167-3.169.221-.348.3-.2 1.162.133 1.553.471.546 1.666.181 2.451.11zM50.855 45.037c4.156-.376 8.3-.7 12.506-.836q4.317-.137 8.634-.237c2.707-.062 5.724.25 8.379-.2.139-.023-.032-1.413-.025-1.6-2.342.029-4.712.265-7.08.294-2.582.032-5.164 0-7.746.059q-7.047.168-14.083.635c-.621.041-2.717-.167-3.168.221-.349.3-.2 1.162.133 1.553.47.548 1.665.183 2.45.111zM51.767 32.656c.634 0 1.262.014 1.86.035 2.873.1 5.775-.1 8.641-.27 3.195-.188 6.389-.426 9.589-.519 1.877-.054 3.882.178 5.81.2.72.01 1.837.217 2.346-.347a1.2 1.2 0 00-.166-1.743 1.312 1.312 0 00-.623-.105c-6.143-.023-12.2.074-18.344.422q-3.906.221-7.812.485c-1.286.087-2.629.079-3.9.275-1.36.208-.666.727-.813 1.878a16.612 16.612 0 013.412-.311zM48.645 48.276q16.533-.669 33.075-1.064l-.5-1.653q-8.778.215-17.55.642-4.386.215-8.768.482-2.11.129-4.219.27c-.315.021-1.706-.08-1.936.2a2.1 2.1 0 00-.102 1.123zM49.172 53.142a.933.933 0 00.606.047c3.841-.546 7.755-.013 11.625-.275a56.672 56.672 0 007.397-1.162.885.885 0 00-.461-1.2 1.707 1.707 0 00-.639-.052l-11.337.384c-1.735.059-3.471.117-5.2.245-.5.037-1.879-.083-2.209.33a1.9 1.9 0 00.218 1.683zM82.816 61.868a1.259 1.259 0 00-.833-1.486 3.721 3.721 0 00-1.868-.049 157.66 157.66 0 01-17.029 1.507q-4.193.144-8.389.063c-1.732-.033-5.906-1.168-5.066 1.749 5.459.478 11.283-.157 16.755-.46q4.156-.229 8.305-.565c.881-.071 7.9-.164 8.125-.759z"/><path class="cls-3" d="M39.62 30.3l2.313-2.8a1.989 1.989 0 01.829.995l-2.081 2.887c-.194.269-.451.568-.78.535a.923.923 0 01-.417-.194c-.729-.515-2.545-1.759-1.275-2.645.468.408.915.843 1.411 1.222z"/><path class="cls-1" d="M36.5 32.324a3.094 3.094 0 01-.054 1.061 3.119 3.119 0 01-1.236 1.456l-.185-9.5a87.007 87.007 0 019.714-.812 45.452 45.452 0 01.219 9.8 85.345 85.345 0 01-9.5.464A1.552 1.552 0 0136.5 33.5a4.75 4.75 0 011.739-.225q2.846-.024 5.683-.266a35.336 35.336 0 01-.321-6.261.841.841 0 00-.1-.546c-.176-.234-.526-.214-.816-.176-2.2.287-4.394-.093-6.543.1a46.812 46.812 0 00.358 6.198z"/><path class="cls-3" d="M40.265 48.771l2.314-2.8a1.989 1.989 0 01.829.995l-2.081 2.887c-.194.269-.451.568-.78.535a.914.914 0 01-.417-.194c-.729-.515-2.545-1.759-1.276-2.645.469.408.916.843 1.411 1.222z"/><path class="cls-1" d="M37.145 50.8a2.325 2.325 0 01-1.291 2.516l-.184-9.5A87.485 87.485 0 0145.384 43a45.527 45.527 0 01.219 9.8 85.357 85.357 0 01-9.5.464 1.552 1.552 0 011.041-1.3 4.75 4.75 0 011.739-.225q2.844-.024 5.683-.266a35.432 35.432 0 01-.322-6.261.834.834 0 00-.1-.546c-.177-.234-.526-.214-.816-.176-2.2.287-4.394-.093-6.543.1a46.643 46.643 0 00.36 6.21z"/><path class="cls-3" d="M40.954 68.467l2.314-2.8a1.991 1.991 0 01.829 1l-2.082 2.887c-.193.268-.45.567-.78.534a.9.9 0 01-.417-.194c-.728-.515-2.545-1.759-1.275-2.645.469.405.915.839 1.411 1.218z"/><path class="cls-1" d="M37.834 70.491a2.331 2.331 0 01-1.291 2.517l-.185-9.5a87.283 87.283 0 019.715-.812 45.589 45.589 0 01.219 9.8 85.841 85.841 0 01-9.5.464 1.552 1.552 0 011.04-1.3 4.75 4.75 0 011.739-.225q2.845-.024 5.683-.265a35.527 35.527 0 01-.321-6.261.842.842 0 00-.1-.547c-.177-.233-.527-.214-.817-.176-2.2.287-4.394-.092-6.542.1a46.638 46.638 0 00.36 6.205z"/><path d="M80.21 78.484v.016a16.408 16.408 0 110-.019" fill="none" stroke="#d6f3f5" stroke-miterlimit="10" stroke-width=".837"/><path d="M64.6 92.93a13.873 13.873 0 1113.359-14.365v.016A13.874 13.874 0 0164.6 92.93zm-.886-25.282A11.441 11.441 0 1075.531 78.7v-.03a11.442 11.442 0 00-11.82-11.022z" fill="#1ccb4f"/><path d="M62.825 80.12c.372-.725.71-1.464 1.116-2.157a46.261 46.261 0 012.649-4.2 56.647 56.647 0 014-4.855 27 27 0 014.592-4 9.782 9.782 0 012.67-1.251 1.974 1.974 0 01.628-.022l.264-.01h.132v.38l-.19.239a5.232 5.232 0 01-.4.444 51.551 51.551 0 00-8.481 10.6 52.434 52.434 0 00-4.763 10.992c-.864 2.727-2.64 3.021-4.458.735a31.782 31.782 0 01-4.195-7.365 10.48 10.48 0 01-.778-2.372c-.28-1.86 1.081-2.685 2.606-3.086s1.894.712 2.4 1.869c.2.456 1.595 4.444 2.017 4.214a.585.585 0 00.159-.187z" fill="#0a383f" id="z4ukfS.tif"/></svg>