<svg xmlns="http://www.w3.org/2000/svg" viewBox="0 0 125 112.3"><defs><style>.cls-1{fill:#b4634f}.cls-2{fill:#eb7588}.cls-6{fill:#d84d64}</style></defs><path class="cls-1" d="M38.005 38.346a10.919 10.919 0 00-2.486.533 3.679 3.679 0 00-1.947 1.563 2.825 2.825 0 00.633 3.421 5.488 5.488 0 002.073.925l3.814 1.1.343-3.4c.1-.993.617-2.871.2-3.809-.448-1.006-1.721-.455-2.63-.333zM92.5 93.681c-.354.268-.714.528-1.076.781-2.837 1.979-8.141 5.847-11.744 5.863-2.738.012-5.242-2.9-7.3-4.832-1.28-1.203-2.28-2.669-3.48-3.953-4.239-4.547-10.579-6.816-14.721-11.452a3.783 3.783 0 012.029-1.918 21.641 21.641 0 012.725-.867 29.557 29.557 0 007.431-3.879 24.678 24.678 0 006.472-5.455c2.361-3.144 3.14-7.164 3.854-11.031.5-2.692 1.349-5.859.961-8.61-.372-2.642-1.351-5.315-1.877-7.949a15.729 15.729 0 01-.342-6.53c.487-2.142 2.089-4.184 4.263-4.5.455 1.576 1.089 3.076 1.6 4.629a13.015 13.015 0 00.319 1.413c.354.738 1.236 1.107 1.675 1.857a32.951 32.951 0 012.956 7.154c1.158 3.825 2.515 7.59 3.669 11.4 1.136 3.754 1.461 7.685 2.21 11.521 1.279 6.557 8.2 15.535 4.428 22.044a15.029 15.029 0 01-4.052 4.314z"/><path class="cls-2" d="M80.271 34.376a2.9 2.9 0 00.974 1.777c.368.248 1.806.7 1.713-.084a19.1 19.1 0 00-.912-3.049 53.657 53.657 0 00-1.235-3.7.388.388 0 00-.185-.252.348.348 0 00-.32.093c-1.049.814-.527 3.439-.035 5.215z"/><path d="M77.844 63.718A60.991 60.991 0 0177 75.928c-.888 4.659-7.086 5.231-11.157 5.06-2.129-.09-4.259-.187-6.388-.269-1.7-.065-3.394.26-5.109.322a40.777 40.777 0 01-6.114-.393c-2.2-.253-4.634-.621-6.014-2.23a6.426 6.426 0 01-1.208-2.561c-.917-3.365-.619-6.879-.67-10.319q-.08-5.4-.076-10.806l.018-16.363q.006-5.254-.109-10.507c-.077-3.408.113-6.6.353-9.987a7.6 7.6 0 01.285-1.849 5.836 5.836 0 014.1-3.734 14.3 14.3 0 012.617-.436c7.1-.5 14.255.636 21.361.154.6-.041 1.073-.069 1.676-.065a8.7 8.7 0 011.416.087c1.954.336 4.192 1.819 4.827 3.589.8 2.228.609 4.2.594 6.511-.031 4.744.142 9.436.06 14.176-.162 9.16.267 18.257.382 27.41z" fill="#257f69"/><path class="cls-1" d="M35.46 76.41a4.409 4.409 0 002.383 1.975 9.434 9.434 0 002.074.4l2.274.26c.152.018.343.015.41-.122.061-.122-.025-.266-.118-.366-.556-.6-1.049-1.051-.984-1.959.049-.691.587-1.241.711-1.927A2.654 2.654 0 0040.2 71.9a6.3 6.3 0 00-3.677.324c-1.845.601-1.923 2.65-1.063 4.186zM34 62.587a4.19 4.19 0 00.156 3.664 6.078 6.078 0 002.728 2.556 3.666 3.666 0 001.5.439 2.975 2.975 0 002.525-1.508 5.332 5.332 0 00.642-2.97 3.769 3.769 0 00-.645-2.183 4.732 4.732 0 00-.927-.841c-1.893-1.436-4.779-1.682-5.979.843z"/><path class="cls-1" d="M41.127 54.4a11.957 11.957 0 01.587 2.729 4.019 4.019 0 01-.7 2.652 3.487 3.487 0 01-3.776 1.078 2.315 2.315 0 01-.908-.5 3.278 3.278 0 01-.583-.869 22.459 22.459 0 01-1.421-3.09 4.281 4.281 0 01-.29-1.669 3.558 3.558 0 011.916-2.692c.806-.455 2.969-1.389 3.878-.911.854.451 1.054 2.459 1.297 3.272z"/><path d="M75.173 60.592c.044 3.666.04 7.329.036 11.011a7.467 7.467 0 01-3.367 6.558 8.9 8.9 0 01-5.321.824 48.31 48.31 0 00-5.556-.056q-6.545.142-13.091-.057c-.6-.018-.823.152-1.286-.212a9.344 9.344 0 01-3.344-3.789 8.938 8.938 0 01-.405-2.547l-.451-7.351a51.219 51.219 0 01-.091-7.564c.19-2.2.146-4.564.169-6.768l.17-15.737c.053-4.933-.4-9.87-.053-14.8a8.082 8.082 0 01.339-2.057c.632-1.851 2.4-3.084 4.131-4.081 2.253-1.3 5.357-.26 7.978-.257l11.723.016c1.95 0 4.211.139 5.815 1.37A5.185 5.185 0 0173.9 16.8a14.226 14.226 0 011.139 8.521c-.569 4.177.1 8.42-.079 12.616q-.3 6.867-.011 13.743c.121 2.984.188 5.949.224 8.912z" fill="#d0e0ef"/><path class="cls-2" d="M35.741 59.418a1.692 1.692 0 00.66.978 4.638 4.638 0 01.015-2.541 3.066 3.066 0 01.753-1.238c.287-.28.973-.428 1.182-.7.567-.729-.335-1.678-1.209-1.594-2.568.247-1.971 3.548-1.401 5.095zM35.6 64.827a9.428 9.428 0 00.392 1.236 9.18 9.18 0 00.394 1.2 1.408 1.408 0 00.91.815 3.557 3.557 0 00.147-.962 4.243 4.243 0 011.82-3.054c.166-.112.364-.312.248-.474a.369.369 0 00-.158-.106 13.422 13.422 0 00-1.47-.532 2.9 2.9 0 00-1.376-.152c-.963.193-1.046 1.217-.907 2.029zM36.925 75.35a2.569 2.569 0 001.87 1.206 4.209 4.209 0 01.136-1.507 6.448 6.448 0 01.418-.851 6.057 6.057 0 00.375-.9c.069-.213.112-.482-.055-.631-.212-.189-.534-.014-.8.083-.679.248-1.712-.184-2.19.422-.389.496-.025 1.728.246 2.178z"/><path class="cls-1" d="M75.641 33.769a20.054 20.054 0 00-.184 3.016 22.262 22.262 0 00.4 4.387 23.406 23.406 0 00.82 2.527 6.34 6.34 0 00.413 1.391c.3.458.864.719 1.19 1.185.333-.1.327-.569.267-.912-.441-2.526 0-5.11.261-7.661s.337-5.237-.757-7.556a4.331 4.331 0 00-2.41 3.623z"/><path d="M78.6 102.276c-.43-.643-.878-1.275-1.27-1.922a.877.877 0 01-.181-.594 23.047 23.047 0 012.816-1.679c1.062-.72 2.664-1.292 3.123-2.612.23-.659.023-1.412.262-2.068.511-1.4 2.441-1.39 3.866-1.831 1.838-.57 3.126-2.19 4.213-3.777a57.27 57.27 0 004.627-8.1c.617-1.318 1.806-6.311 4.013-5.873.8.159 2.705 5.386 3.126 6.242q1.8 3.654 3.532 7.339c1.063 2.393 1.831 4.9 2.771 7.339.788 2.048 2.294 3.786 3.041 5.851.776 2.144.839 4.445 1.478 6.68.319 1.119-21.921 1.9-23.935 1.786-2.742-.156-7.7.386-9.327-1.743-.595-.78-.531-2.033-.926-2.917a14.421 14.421 0 00-1.229-2.121z" fill="#fff"/><g id="_35_loading" data-name="35 loading"><path class="cls-6" d="M60.53 34.082a1.041 1.041 0 111.041-1.041 1.042 1.042 0 01-1.041 1.041zM67.539 44.2a1.041 1.041 0 111.038 1.139 1.041 1.041 0 01-1.038-1.139zM67.259 40.83a1.039 1.039 0 111 .772 1.041 1.041 0 01-1-.772zM65.814 37.773a1.041 1.041 0 11.847.435 1.04 1.04 0 01-.847-.435zM63.105 33.968a1.041 1.041 0 11.862 1.623 1.041 1.041 0 01-.862-1.623zM67.557 48.959a1.041 1.041 0 111.043-1.041 1.042 1.042 0 01-1.041 1.041zM66.2 49.9a1.042 1.042 0 00-1.4.068 9.5 9.5 0 11-11-15.2l.334 1.371a.416.416 0 00.7.194l3.185-3.224a.416.416 0 00-.168-.688l-4.311-1.4a.417.417 0 00-.533.5L53.3 32.7a11.581 11.581 0 1012.971 18.747A1.042 1.042 0 0066.2 49.9z"/><path class="cls-6" d="M68.555 43.262a1.04 1.04 0 01-.887 1.55 1.041 1.041 0 10.887-1.55zM69.27 40.291a1.04 1.04 0 00-1.026-.771 1.041 1.041 0 01-.887 1.551 1.041 1.041 0 001.913-.78zM67.506 36.562a1.039 1.039 0 00-.867-.435 1.041 1.041 0 01-.886 1.55 1.04 1.04 0 101.753-1.115zM64.55 33.687a1.03 1.03 0 00-.6-.177 1.039 1.039 0 01-.885 1.549 1.04 1.04 0 101.488-1.372zM67.66 46.883a1.037 1.037 0 00-.124-.005 1.04 1.04 0 01-.886 1.55 1.041 1.041 0 101.01-1.545zM66.2 49.9a1.043 1.043 0 00-.711-.235 1.042 1.042 0 01-.158 1.274A11.594 11.594 0 0152.175 53.2a11.588 11.588 0 0014.1-1.757A1.042 1.042 0 0066.2 49.9z"/></g></svg>