<svg xmlns="http://www.w3.org/2000/svg" viewBox="0 0 125 112.3"><rect x="30.937" y="18.512" width="60.618" height="80.701" rx="3.347" fill="#a5680e"/><path d="M90.721 94.181c.006.415.013.83.018 1.246.016 1.394-5 .576-6.138.595-6.091.1-12.366.227-18.342.3-5.379.069-10.754.321-16.125.611-4.8.259-9.867.007-14.569.482-.893-4.823-.6-10.2-.779-15.118-.183-5.083-.318-10.168-.437-15.253-.236-10.013-.407-20.027-.748-30.037-.151-4.431-.324-8.817-.518-13.23-.029-2.065 34.645-1.922 37.958-1.916 5.464.01 10.909-.29 16.386-.42-.162 0 1.014 19.056 1.085 20.552 0 17.39 1.917 34.79 2.209 52.188z" fill="#e6e6e6"/><path d="M89.114 95.067q.036.869.08 1.735c.021.41-6.24-.212-6.659-.225-6.006-.188-12.194-.36-18.087-.568-5.3-.186-10.611-.192-15.918-.16-4.744.029-9.723-.459-14.378-.213-.652-4.8-.111-10.079-.053-14.933.06-5.017.167-10.034.289-15.051.241-9.877.546-19.752.683-29.632.06-4.373.1-8.7.115-13.06.069-2.036 34.228-.257 37.492-.1 5.383.268 10.763.229 16.165.361-.159 0 .1 18.824.1 20.3l-.027 27.088-.009 8.477c-.007 5.333-.013 10.661.207 15.981z" fill="#fff"/><path d="M79.293 24.785c-.271-3.407-1.671-6.114-5.038-7.14a16.037 16.037 0 00-2.344-.464c-.951-.139-3.59-.046-4.3-.674S67 14.242 66.469 13.4c-.93-1.461-2.834-1.956-4.565-2.01a7.844 7.844 0 00-3.265.491 5.5 5.5 0 00-3.3 4.505 15.467 15.467 0 00-7.839 2.087 8.569 8.569 0 00-2.866 2.982c-.352.63-1.276 2.56-.863 3.3.452.8 2.748.478 3.612.5 5.217.152 10.536.325 15.751.178 2.61-.073 5.218-.213 7.828-.3 1.3-.045 2.607-.081 3.91-.089.267 0 4.467.306 4.446.014a6.753 6.753 0 01-.025-.273z" fill="#cac2b7"/><path d="M64.911 16.824a4.324 4.324 0 00-1.411-2.487 3.82 3.82 0 00-3.195-.457 3.208 3.208 0 00-1.779 1.149 3.251 3.251 0 00-.663 1.922c.051.366.448.22.792.216l1.28-.014 4.907-.054a.082.082 0 00.1-.113l-.031-.162z" fill="#fff"/><path d="M72.887 20.212a4.6 4.6 0 00-2.62-1.183 19.229 19.229 0 00-3.283-.173l-9.118.037a37.664 37.664 0 00-4.35.185 10.586 10.586 0 00-3.916 1.147c3.471.127 7.088-.156 10.563-.234 4.3-.1 8.6.1 12.9.3.097-.06-.049-.103-.176-.079zM53.886 22.68c2.384-.088 4.767-.175 7.152-.244 2.569-.075 5.14-.129 7.71-.076a52.7 52.7 0 016.077.426c.085-.325-.232-.648-.638-.8a4.346 4.346 0 00-1.34-.2 235.416 235.416 0 00-20.7-.073 7.945 7.945 0 00-2.451.19c-.4.187-.6.663-.785.956 1.637.041 3.336-.119 4.975-.179z" fill="#a8a299"/><path d="M54.209 35.369c4-.257 7.99-.464 12.029-.488q4.148-.024 8.3-.011c2.6.009 5.489.384 8.05.023.134-.019 0-1.358.016-1.539-2.25-.03-4.53.137-6.805.105-2.48-.034-4.958-.132-7.439-.138q-6.77-.016-13.537.256c-.6.024-2.6-.229-3.047.133-.343.279-.226 1.11.088 1.494.436.534 1.59.214 2.345.165zm.144 16.418c4-.257 7.99-.464 12.029-.488q4.148-.024 8.3-.011c2.6.009 5.489.384 8.05.023.134-.019 0-1.358.016-1.539-2.249-.03-4.53.137-6.8.105-2.479-.034-4.958-.132-7.439-.138q-6.779-.016-13.547.261c-.6.024-2.605-.228-3.047.133-.343.279-.226 1.11.088 1.494.439.529 1.597.209 2.35.16zm1.187-11.864c.609.013 1.211.044 1.785.08 2.756.171 5.547.049 8.3-.042 3.073-.1 6.145-.248 9.22-.257 1.8-.005 3.723.268 5.573.343.691.028 1.759.254 2.261-.274a1.155 1.155 0 00-.115-1.678 1.27 1.27 0 00-.6-.117c-5.9-.177-11.711-.235-17.623-.056q-3.756.114-7.512.269c-1.238.052-2.527.011-3.755.166-1.311.166-.658.682-.828 1.783a15.974 15.974 0 013.294-.217zm-3.39 14.918q15.89-.227 31.783-.19l-.435-1.6q-8.434-.017-16.866.175-4.217.1-8.431.242-2.028.072-4.057.154c-.3.012-1.636-.12-1.864.141a2.015 2.015 0 00-.13 1.078zm.383 4.686a.9.9 0 00.582.06c3.7-.427 7.445.182 11.168.028a54.438 54.438 0 007.128-.93.849.849 0 00-.411-1.16 1.637 1.637 0 00-.608-.072l-10.892.084c-1.667.013-3.336.025-5 .1-.484.023-1.8-.127-2.129.261a1.825 1.825 0 00.162 1.629zm32.084 9.224a1.209 1.209 0 00-.762-1.448 3.571 3.571 0 00-1.793-.094 151.363 151.363 0 01-16.387 1.019q-4.029.032-8.056-.15c-1.663-.076-5.642-1.27-4.909 1.551 5.229.6 10.837.133 16.1-.02q4-.117 7.987-.335c.847-.046 7.588.042 7.82-.523z" fill="#d8dbe2"/><path d="M43.936 37.355l2.292-2.626a1.914 1.914 0 01.771.976l-2.071 2.72c-.193.253-.447.534-.762.494a.877.877 0 01-.4-.2c-.687-.513-2.4-1.753-1.158-2.572.444.404.862.832 1.328 1.208z" fill="#b8dfe7"/><path d="M40.89 39.22a2.989 2.989 0 01-.08 1.017 2.992 2.992 0 01-1.223 1.363l.061-9.123A83.9 83.9 0 0149 31.946a43.736 43.736 0 01-.036 9.418 82.312 82.312 0 01-9.131.207 1.491 1.491 0 011.031-1.223 4.577 4.577 0 011.676-.172q2.731.048 5.463-.112a34.01 34.01 0 01-.151-6.02.809.809 0 00-.086-.527c-.163-.228-.5-.218-.779-.189-2.115.22-4.217-.2-6.284-.071a44.757 44.757 0 00.187 5.963z" fill="#d8dbe2"/><path d="M44.092 55.106l2.292-2.626a1.907 1.907 0 01.77.976l-2.07 2.72c-.193.253-.447.533-.763.493a.866.866 0 01-.395-.2c-.687-.513-2.4-1.753-1.158-2.572.44.403.858.832 1.324 1.209z" fill="#b8dfe7"/><path d="M41.045 56.971a2.966 2.966 0 01-.079 1.017 3 3 0 01-1.223 1.367l.061-9.123a83.665 83.665 0 019.348-.536 43.681 43.681 0 01-.037 9.419 82.059 82.059 0 01-9.131.206 1.492 1.492 0 011.032-1.221 4.577 4.577 0 011.676-.172q2.731.048 5.463-.113A34 34 0 0148 51.8a.809.809 0 00-.086-.527c-.164-.229-.5-.219-.779-.19-2.115.22-4.217-.2-6.284-.071a44.765 44.765 0 00.194 5.959z" fill="#d8dbe2"/><path d="M44.258 74.034l2.292-2.626a1.914 1.914 0 01.771.976L45.25 75.1c-.193.253-.447.534-.762.494a.877.877 0 01-.4-.2c-.687-.513-2.4-1.753-1.158-2.572.444.407.862.836 1.328 1.212z" fill="#b8dfe7"/><path d="M41.212 75.9a2.241 2.241 0 01-1.3 2.384l.061-9.123a83.9 83.9 0 019.348-.535 43.736 43.736 0 01-.036 9.418 82.312 82.312 0 01-9.131.207 1.491 1.491 0 011.032-1.223 4.569 4.569 0 011.675-.172q2.732.048 5.463-.112a34.01 34.01 0 01-.151-6.02.809.809 0 00-.086-.527c-.163-.229-.5-.219-.779-.189-2.115.22-4.216-.2-6.284-.071a44.757 44.757 0 00.188 5.963z" fill="#d8dbe2"/><path d="M77.743 89.064c3.157 3.408 5.257 7.874 7.676 11.752a79.33 79.33 0 002.821 4.192q.736 1.029 1.5 2.042c.132.177.238.373.357.558a2.292 2.292 0 00.758.88c.228.113.394-.028.6-.13.311-.153.619-.308.927-.466a135.778 135.778 0 003.61-1.941c.355-.195.71-.391 1.049-.609.047-.03.1-.068.1-.121a.172.172 0 00-.032-.088 38.39 38.39 0 00-2.368-3.1 67.406 67.406 0 01-2.815-3.962c-3.046-4.65-6.649-9.232-9.111-14.17-2.616.761-5.059 2.811-4.673 5.314a3.272 3.272 0 001.155-.756" fill="#997a4d"/><path d="M91.812 108.237c-.175.095-.332.218-.507.314-.264.145-.333.16-.552-.056a10.429 10.429 0 01-1.238-1.58l-2.9-4.242c-2-2.929-4.015-5.852-6.129-8.711a59.59 59.59 0 01-1.829-2.628 3.778 3.778 0 01-.744-1.38 2.939 2.939 0 01.27-1.878c.207-.371.631-1.087 1.13-.779a6.494 6.494 0 01.625-.346c1.376 1.979 2.524 3.948 3.9 5.927 1.721 2.476 3.444 4.954 5.008 7.52a38.4 38.4 0 002.2 3.468 23.457 23.457 0 011.661 2.382c.176.3.635.907.475 1.2s-1.067.625-1.37.789z" fill="#876b45"/><path d="M80.692 79.926c.546-.68 1.529-1.566 2.105-2.4a14.8 14.8 0 002.813-10.978 23.734 23.734 0 00-6.289-12.124c-7.226-6.993-16.627-4.1-22.67 1.434-3.51 3.214-6.73 7.814-5.928 13.324.856 5.883 4.562 12.633 9.692 15.666a12.392 12.392 0 007.126 1.909 18.125 18.125 0 005.374-1.257c1.372-.58 1.562-.738 2.1.063a16.66 16.66 0 002.749 3.65l.448 1.267c.79-.493 2.513-1.949 3.279-2.522 2.641-1.974 3.364-1.169 1.129-4.209-.733-.996-2.52-3.092-1.928-3.823zm-10.2 2.674a20.129 20.129 0 01-4.948.135l.13-.022a9.179 9.179 0 01-3.525-1.133 16.15 16.15 0 01-5.66-5.723 13.614 13.614 0 01-1.808-10.908c1.186-4.915 4.851-8.464 9.259-10.421a12.4 12.4 0 0112.775 1.944c5 4.232 7.052 14.116 4.055 19.661C79 79.4 74.093 82.147 70.492 82.6z" fill="#afada0"/><path d="M97.19 105.459c-.058.284-.433.451-.66.6a25.018 25.018 0 01-4.051 2.338 11.15 11.15 0 01-1.17.407.551.551 0 01-.286.026c-.5-.133.78-1.03.936-1.153a22.023 22.023 0 012.025-1.513 9.165 9.165 0 012.762-1.115c.313-.068.51.092.444.41z" fill="#a58151"/><path d="M74.235 84.968A5 5 0 0075.71 84a3.917 3.917 0 01.989-.785 11.309 11.309 0 00.357 1.64 3.832 3.832 0 00.321.973 10 10 0 00.759.938 4.25 4.25 0 001.381 1.388 3.434 3.434 0 01.809.622 4.212 4.212 0 01-1.315 1.333c-.262.208-.625.687-.912.315-.239-.311-.242-.761-.466-1.085s-.453-.616-.688-.914a16.683 16.683 0 01-1-1.436c-.317-.5-.522-.778-.839-1.264-.109-.168-.969-.708-.827-.84M62.693 54.686a19.61 19.61 0 013.107-1.108 8.8 8.8 0 012.05-.57 14.679 14.679 0 014.882.677c2.43.7 4.595 2.72 6.284 4.534 2 2.146 2.893 5.4 3.527 8.2a14.089 14.089 0 01-.8 9.364 6.438 6.438 0 01-2.571 2.887 10.708 10.708 0 01-2.477 1.517c2.078-1.3 3.224-3.93 4.052-6.161a14.64 14.64 0 00.334-8.649 15.2 15.2 0 00-3.716-7.393 11.785 11.785 0 00-7.75-3.718 16.694 16.694 0 00-4.448.427 14.57 14.57 0 00-4.184 1.35 23.694 23.694 0 012.3-1.763" fill="#a09d92"/><path d="M60.892 52.777c-.479.041-1.105.726-1.552.992s-.905.523-1.34.794a14.54 14.54 0 00-3.716 3.113 23.569 23.569 0 00-4.777 11.156c-.674 5.467 3.5 10.772 7.6 13.874 2.314 1.751 5.367 3.545 8.254 3.98a18.59 18.59 0 004.917-.158 7.341 7.341 0 004.322-1.874c-.56-.4-2.573.5-3.325.539a32.371 32.371 0 01-5.806-.408 14.655 14.655 0 01-10.207-6.634c-1.218-1.865-2.279-3.265-2.748-5.176a14.876 14.876 0 01-.553-5.261 20.678 20.678 0 014.771-11.371c1.215-1.434 3.474-2.185 4.511-3.733-.387.043-.723.435-1.091.312" fill="#c1beb0"/><path d="M72.6 62a4.521 4.521 0 00-1.74.335c-2.131.553-4.192 1.226-6.292 1.871-1.567.482-4.291.78-5.461 2.133.6.7 1.993.4 2.794.264a38.107 38.107 0 005.174-1.373c1.536-.5 3.106-1.037 4.592-1.664.718-.3 1.858-.589 2.142-1.383A2.425 2.425 0 0071.732 62m5.053 2.542a7.1 7.1 0 00-2.36.628c-.825.27-1.619.628-2.439.909-1.351.463-2.743.8-4.058 1.358-.9.384-1.747.859-2.617 1.306a3.586 3.586 0 00-1.28.8c1.226.541 3.339-.5 4.535-.8a43.9 43.9 0 004.3-1.2 21.109 21.109 0 004.188-1.5c.336-.21.914-.575.961-.988.107-.959-1.129-.58-1.58-.25m-3.507 4.64c-.022.1-2.879.765-3.369.916-1.284.4-2.612.721-3.852 1.242-.935.393-2.866 1-3.383 1.957.8.24 2.441-.433 3.216-.645q2.136-.584 4.27-1.191c1-.284 1.981-.563 2.95-.942.9-.353 1.611-1.467-.065-1.163" fill="#fff" opacity=".64"/><path d="M65.674 82.708a9.179 9.179 0 01-3.525-1.133 16.15 16.15 0 01-5.66-5.723 13.614 13.614 0 01-1.808-10.908c1.186-4.915 4.851-8.464 9.259-10.421a12.405 12.405 0 0112.775 1.944c5 4.232 7.052 14.116 4.055 19.661C79 79.4 74.093 82.147 70.492 82.6a20.129 20.129 0 01-4.948.135" fill="#d7dff5" opacity=".6"/></svg>