<svg xmlns="http://www.w3.org/2000/svg" viewBox="0 0 125 112.3"><defs><style>.cls-1{fill:#b2cadf}.cls-3{fill:#dcebed}.cls-4{fill:#c4d3d5}.cls-8{fill:#b4634f}.cls-10{fill:#169976}.cls-12{fill:#117c5d}.cls-15{fill:#773c32}.cls-17{fill:#99475a}</style></defs><rect class="cls-1" x="52.578" y="8.43" width="67.295" height="61.455" rx="2.094"/><rect x="55.777" y="12.749" width="60.505" height="52.815" rx="2.106" fill="#fff"/><path class="cls-3" d="M87.82 49.644h.333a17.144 17.144 0 00.257-2.761.857.857 0 00-.2-.673.874.874 0 00-.58-.141q-8.157-.016-16.315.086c-1.176.015-3.539.895-2.372 2.421 1.011 1.322 4.076.846 5.5.889q6.686.197 13.377.179zM82.311 40.67a63.755 63.755 0 0110.545-.191.9.9 0 00.735-.134.98.98 0 00.136-.889q-.159-.884-.385-1.753a1.329 1.329 0 00-.411-.776 1.242 1.242 0 00-.654-.174c-1.75-.129-3.349.2-5.1.112-2.149-.112-4.3-.176-6.451-.208-4.236-.062-8.472-.02-12.707-.129q-1.989-.052-3.979-.137c-.8-.034-2.389-.528-3.089.154a2.265 2.265 0 00-.388 2.595c.595 1.22 1.572 1.181 2.723 1.139a83.484 83.484 0 019.237.171c1.6.119 3.2.284 4.808.335 1.661.053 3.321-.016 4.98-.115zM82.311 20.433c3.522-.071 7.042-.19 10.545-.064a2.448 2.448 0 00.735-.046c.223-.071.192-.2.136-.3a4.171 4.171 0 00-.385-.592.655.655 0 00-.411-.263 3.312 3.312 0 00-.654-.059c-1.75-.043-3.349.069-5.1.038q-3.224-.057-6.451-.07c-4.236-.021-8.472-.007-12.707-.044q-1.989-.017-3.979-.046a13.146 13.146 0 00-3.089.052c-.683.225-.8.587-.388.877a5.043 5.043 0 002.723.385c3.079-.038 6.164-.019 9.237.058 1.6.04 3.2.1 4.808.113 1.661.018 3.321-.005 4.98-.039zM76.92 25.852q-1.342 0-2.684-.021c-1.045-.016-5.158-.756-5.722.177-.358.591.189 2.513.294 3.183q.238 1.541.608 3.054c.126.513 9.1-.258 10.025-.282 3.229-.084 6.362.244 9.567-.341a12.152 12.152 0 00-.852-5.551.865.865 0 00-.3-.436.836.836 0 00-.488-.072q-5.218.293-10.448.289z"/><path class="cls-4" d="M102.577 48.144l-3.141-4.026-4.235 2.075 2.487-13.019 7.376 1.951-2.487 13.019z"/><path fill="#cfdee1" d="M106.142 50.342L101.086 36.1l6.972-3.429 5.055 14.242-4.699-1.597-2.272 5.026"/><path class="cls-3" d="M103.552 20.5l1.791 3.09a.507.507 0 00.569.236l3.452-.918a.506.506 0 01.62.62l-.918 3.452a.508.508 0 00.236.569l3.09 1.792a.507.507 0 010 .877l-3.09 1.792a.508.508 0 00-.236.569l.918 3.452a.506.506 0 01-.62.62l-3.452-.918a.508.508 0 00-.569.235l-1.791 3.091a.508.508 0 01-.877 0l-1.792-3.091a.508.508 0 00-.569-.235l-3.452.918a.506.506 0 01-.62-.62l.918-3.452a.508.508 0 00-.236-.569l-3.09-1.792a.507.507 0 010-.877l3.09-1.792a.508.508 0 00.236-.569l-.918-3.452a.506.506 0 01.62-.62l3.452.918a.507.507 0 00.569-.236l1.792-3.09a.507.507 0 01.877 0z"/><path class="cls-4" d="M107.726 29.646a5.094 5.094 0 01-4.847 4.668 4.66 4.66 0 01-4.349-6.524 5.185 5.185 0 014.053-2.936 4.455 4.455 0 014.581 2.62 4.342 4.342 0 01.415.935 3.951 3.951 0 01.147 1.237z"/><path d="M91.575 59.523a4.966 4.966 0 011.685.127h20.533" stroke="#dcebed" stroke-width=".426" fill="none" stroke-miterlimit="10"/><path class="cls-1" d="M93.116 61.5l-.132-.413a2.77 2.77 0 01.432-2.348 17.223 17.223 0 00-.118-1l-.019-.145a10.28 10.28 0 01-2.195 2.6l-.274-.325a9.938 9.938 0 002.395-3.009 3.08 3.08 0 011.039-2.9l.423-.294-.092.506a10.228 10.228 0 01-.938 2.775c.011.162.028.329.052.5l.031.234c.023.168.046.339.067.513.264-.353.557-.694.839-1.022l.21-.245a10.891 10.891 0 001.014-1.4 5.519 5.519 0 01-.041-1.949 2.218 2.218 0 011.307-1.681l.3-.11-.015.32a7.675 7.675 0 01-1.108 3.506 3.1 3.1 0 00.946 2.121 1.056 1.056 0 00.69.168 1.07 1.07 0 01.33-.766.823.823 0 01.8-.227l.136.038.018.14a1.021 1.021 0 01-.544 1.019 1.6 1.6 0 01-.211.1 1.136 1.136 0 00.859.465 3.157 3.157 0 001.37-.314l.022-.008c1.378-.548 2.94-1.169 4.3-.469.127.065.247.141.364.214a2.158 2.158 0 00.654.318 2.188 2.188 0 001.107-.17c.1-.035.209-.069.313-.1a4.729 4.729 0 013.684.478l-.22.365a4.294 4.294 0 00-3.346-.434c-.1.029-.2.062-.3.094a2.518 2.518 0 01-1.33.181 2.473 2.473 0 01-.789-.373c-.114-.071-.222-.139-.333-.2-1.183-.611-2.649-.028-3.942.486l-.022.009a3.522 3.522 0 01-1.56.343 1.516 1.516 0 01-1.253-.782 1.5 1.5 0 01-1.038-.238 2.957 2.957 0 01-1.037-1.931 11.452 11.452 0 01-.8 1.049l-.211.247a12.937 12.937 0 00-1.1 1.4 3.54 3.54 0 01-.488 2.291zm.3-1.769a2.263 2.263 0 00-.109.55 3.026 3.026 0 00.11-.546zm5.367-2.412a.493.493 0 00-.228.129.657.657 0 00-.19.343q.043-.021.084-.045a.675.675 0 00.335-.423zm-4.8-2.47a2.634 2.634 0 00-.325.995 9.711 9.711 0 00.329-.991zm2.961-2.38a1.993 1.993 0 00-.722 1.2 4.007 4.007 0 00-.03 1.24 7.153 7.153 0 00.756-2.436z"/><path d="M34.169 8.949a29.308 29.308 0 00-3.55 3.727c-4.673 5.973-4.486 12.214-5.346 19.432a71.075 71.075 0 00-.038 11.736 28.669 28.669 0 001.312 8.471c.417 1.169.992 2.976 2.107 3.861a2.058 2.058 0 001.48.531c1.276.1 1.123-.342 2.22.543.842-1.694 3.963.285 4.346-.83.7-.245 1.527.516 2.184.212.3-.137.5-.475.838-.421a.9.9 0 01.275.118c1.775.963 2.486-1.018 3.527-1.809a10.068 10.068 0 013.856-1.466 34.335 34.335 0 017.878-1.035 27.623 27.623 0 013.975.492c1.918.294 1.948-1.794 3.6-.262 1.6 1.491 2.68 2.8 5.282 3.294a.433.433 0 00.367-.044c.081-.082-.1-.228-.163-.136a1.088 1.088 0 00.759.768 4.589 4.589 0 001.248.223c1.8.153 3.778.7 5.578.465a.888.888 0 00.508-.185.612.612 0 00.144-.37c.934-6.367 2.694-13.034 2.366-19.459-.322-6.311-2.887-12.349-5.142-18.327a25.218 25.218 0 00-2.237-4.849 20.124 20.124 0 00-6.261-6.043c-1.118-.706-2.245-1.17-3.34-1.923a25.154 25.154 0 00-3.978-2.235c-1.085-.485-1.786-.2-2.853-.274-1.255-.082-2.51-.432-3.772-.534a22.4 22.4 0 00-7.353.585 24.509 24.509 0 00-9.817 5.744z" fill="#422745"/><path class="cls-8" d="M84.446 72.76q-.2-1.175-.414-2.346c-.515-2.838-3.861-3.691-6.217-4.428a39.659 39.659 0 01-5.31-2.447l-5.511-2.687c-2.175-1.06-4.425-2.076-5.725-4.19a8.356 8.356 0 01-1.06-3.191c-.044-.3-.143-3.336-.192-3.348a53.885 53.885 0 00-12.383-1.648 8.251 8.251 0 00-5.764 2.344c.51 4 .764 8.718-2.295 11.356-1.871 1.614-4.488 1.955-6.931 2.354a39.2 39.2 0 00-12.286 3.825 18.294 18.294 0 00-5.741 4.315c-1.408 1.822-.166 4.039.539 6a11.633 11.633 0 003.127 5.243c2.233 1.844 5.294 2.076 7.962 2.906 3.11.968 6.14 2.176 9.25 3.143a91.289 91.289 0 0022.935 3.592c3.9.18 7.8.218 11.706.22 3.627 0 6.58.029 9.629-2.259a29.968 29.968 0 004.686-4.726 4.745 4.745 0 001.349-4.712 170.54 170.54 0 00-1.354-9.316z"/><path d="M52.425 55.206a13.478 13.478 0 001.89-1.073 29.363 29.363 0 005.936-4.421 5.3 5.3 0 00-.117 2.447q.136 1.388.377 2.762a.8.8 0 01-.263.912c-.474.488-.926 1.011-1.444 1.452l-2.726 2.321c-1.074.916-2.253 1.873-3.614 1.906-1.755.041-3.178-1.434-4.669-2.447-1.739-1.181-3.389-2.493-5.023-3.813a2.072 2.072 0 01-.631-.7 2.353 2.353 0 01-.126-.972 21.485 21.485 0 00-.2-2.468c-.073-.616.018-1.073.676-.6.48.345.881.79 1.342 1.158a23.919 23.919 0 004.03 2.788 8.017 8.017 0 003.432.968 2.941 2.941 0 001.13-.22z" fill="#92503f"/><path class="cls-10" d="M48.616 103.456c.109 3.138 1.71 6.9-2.787 6.55-11.312-.884-22.713-.009-34.053.353-1.687.053-3.7-.061-4.571-1.508a4.787 4.787 0 01-.51-2 43.6 43.6 0 01-.29-4.624 136.56 136.56 0 011.574-9.987 129.692 129.692 0 015.307-19.06c.705-1.944 1.571-4.013 3.4-5.1 2.4-1.429 5.615-.663 8.253-1.648a32.905 32.905 0 003.953-2.287c3.261-1.765 7.508-1.791 10.242-4.242 1.07-.959 1.822-2.228 3-3.07l.184.405a84.946 84.946 0 002.081 11.644l1.732 7.627.095-.54a265.034 265.034 0 012.39 27.487zM85.136 69.1a4.962 4.962 0 00-1.5-2.25 8.3 8.3 0 00-3.661-1.258A40.634 40.634 0 0169.9 62.253a42.834 42.834 0 01-5.266-3.045l-.012 1.471 2.071 18.888.687 6.265 1.439 13.12c.206 1.882.412 3.764.6 5.648q.138 1.407.258 2.817c.049.587-.2 1.992.58 2.064a58.683 58.683 0 0010.905-.083c1.711-.16 3.415-.379 5.12-.6.535-.069.375-3.94.417-4.622A67.808 67.808 0 0087 94.927c-.339-4.542-1.922-8.911-2.2-13.46-.259-4.167 1.87-8.145.336-12.367z"/><path class="cls-10" d="M84.517 67.64a2.907 2.907 0 01.379.582l2.851 5.457a68.982 68.982 0 014.228 9.151c2.666 7.664 3.177 15.736 3.975 23.72.089.888.6 2.141-.514 2.6a2.743 2.743 0 01-.99.143l-4.383.095-7.645.166-2 .043c-.636.015-.881.112-.861-.552a27.3 27.3 0 01.458-2.731l1.784-13.5.41-3.108 1.531-11.55c.484-3.658.965-7.194.188-10.856a.948.948 0 01.589.34z"/><path d="M47.411 71.969a11 11 0 0017.326-.544c2.277 3.6 2.776 8.094 3.213 12.395.5 4.9 1.336 9.756 2.043 14.629.355 2.438.678 4.882.909 7.335.072.758.6 2.763.156 3.38-.479.665-1.962.47-2.648.4a43.7 43.7 0 00-3.256-.184c-2.724-.058-5.446.089-8.169.143-1.36.027-2.721.034-4.08-.02a5.946 5.946 0 01-2.057-.138c-.373-.24-.332-.726-.4-1.139a365.238 365.238 0 01-2.187-15.677Q47 81.9 46.217 71.2z" fill="#f4f4f4"/><path class="cls-12" d="M41.928 56.676a107.92 107.92 0 002.8 11.392A91.705 91.705 0 0149.067 89.2c.364 3.6.6 7.2.809 10.808.1 1.728.426 3.446.56 5.172a25.063 25.063 0 01.026 4.664.545.545 0 01-.088.272c-.135.178-.409.172-.638.148-2.814-.293-5.642-.114-8.461-.641a.591.591 0 01-.262-.095.547.547 0 01-.147-.236 18.9 18.9 0 01-.694-1.9q-.37-1.3-.7-2.609-.2-.784-.377-1.572c-.949-4.122-1.22-8.651-2.7-12.615-.689-1.846-.985-3.842-1.635-5.722-.682-1.973-1.492-3.9-2.273-5.843-.638-1.585.819-1.583 1.861-2.384a.59.59 0 00.232-.286.6.6 0 00-.065-.382 9.358 9.358 0 00-4.172-4.2c-.252-.143-.544-.346-.51-.624a.765.765 0 01.317-.435c1.82-1.584 2.537-3.927 3.575-5.987 1.225-2.431 3.124-3.872 5.21-5.614a24.137 24.137 0 001.636-1.477c.427-.43.667-.963 1.334-1.063zM62.127 59.1c.676 3.7 1.6 7.363 2.228 11.07L69 97.386c.353 2.07.776 4.132 1.159 6.2.239 1.287.468 2.574.677 3.864a6.4 6.4 0 00.285 1.913c.287.53.535.483 1.418.423 1.648-.112 3.31.222 4.956.1a1.183 1.183 0 00.58-.149c.923-.652.426-2.157.383-3-.06-1.215-.15-2.43-.219-3.645a28.682 28.682 0 01.187-6.746l2.664-14.694a8.968 8.968 0 00.01-4.742 4.7 4.7 0 00-1.4-1.957c-.565-.474-2.018-.928-2.277-1.524-.6-1.369 3.559-1.762.645-3.094-6.893-3.15-9.968-9.324-16.248-13.082q.138.923.307 1.847z"/><path class="cls-8" d="M35.14 30.329a2.3 2.3 0 00-2.653.731 5.031 5.031 0 00-1 2.8 6.657 6.657 0 00.8 4.2 3.492 3.492 0 003.64 1.669c.553 5.23 3.8 8.651 7.562 11.895a23.576 23.576 0 003.8 2.852A10.432 10.432 0 0051.411 56c1.314.008 2.776-1.057 3.865-1.761 4.773-3.085 9.707-8.435 10.665-14.2a4.54 4.54 0 004.01-1.861 8.584 8.584 0 001.575-4.366A4.378 4.378 0 0071 30.77a1.772 1.772 0 00-2.67-.345 31.5 31.5 0 00-4.004-11.435c-2.171-3.415-5.516-6.2-9.428-6.932-4.42-.829-10.725-.5-13.87 3.144a25.679 25.679 0 00-4.46 6.828c-.383.926-2.59 7.725-1.428 8.299z"/><path d="M43.466 11.287a13.53 13.53 0 00-3.879 5.228 32.116 32.116 0 00-1.732 5.324c-.3 1.207-.7 3.234 1.293 2.164a4.422 4.422 0 001.552-1.738 31.851 31.851 0 003.1-7.025 27.8 27.8 0 00-.873 7.049 1.205 1.205 0 00.907-.231 1.333 1.333 0 001.612.572 2.445 2.445 0 01.576-.236c.388-.053.724.257 1.083.423a4.585 4.585 0 002.4-.024c1.454-.153 2.9.364 4.36.378a.687.687 0 00.486-.127.816.816 0 00.191-.511 37.2 37.2 0 00.126-8.19c1.368 2.437.482 5.669 1.571 8.258l.441-.4a4.414 4.414 0 003.366 1.325c1.233.022 2.464-.215 3.7-.153a1.128 1.128 0 01.825.293 1.392 1.392 0 01.249.6 21.023 21.023 0 001.432 3.821c.565 1.224.593 2.615 1.088 3.864l.222-.569a.266.266 0 01.09-.136.33.33 0 01.209-.011.93.93 0 00.8-.392 2.759 2.759 0 00.39-.843 14.8 14.8 0 00.139-6.729 30.892 30.892 0 00-1.178-4.794 13.938 13.938 0 00-2.1-4.492 10.469 10.469 0 00-3.03-2.5 21.262 21.262 0 00-12.746-2.5c-7.952.777-13.088 7.9-14.633 15.232a25.05 25.05 0 00-.381 2.371c-.1.9-.251 1.647.937 1.17.307-.123.633-2.779.725-3.181a27.5 27.5 0 01.91-3.117" fill="#422645"/><path d="M66.085 29.967c-1.636 0-3.161-.082-4.775-.228a21 21 0 00-5.128.074c-1.225.192-2.7.557-3.393 1.489a10.956 10.956 0 00-2.871-.13 1.546 1.546 0 01-.939-.1 1.858 1.858 0 01-.449-.532 3.419 3.419 0 00-2.343-1c-3.832-.487-7.751.161-11.607-.141-.129.4.225.794.621 1a7.551 7.551 0 011.2.589 2.843 2.843 0 01.787 1.816 7.632 7.632 0 002.786 4.675 5.952 5.952 0 005.623.853 5.724 5.724 0 002.693-2.476 14.086 14.086 0 001.265-3.332.387.387 0 01.13-.232.488.488 0 01.3-.048l2.749.158a7.251 7.251 0 006.109 6.3 5.21 5.21 0 003.7-1c1.928-1.343 2.3-3.391 2.846-5.4a.544.544 0 01.136-.273.726.726 0 01.364-.131 4.8 4.8 0 003.039-1.852 9.159 9.159 0 00-2.843-.079zM48.017 33.54a5.033 5.033 0 01-3.086 3.6 4.343 4.343 0 01-4.726-1.067 4.961 4.961 0 01-.786-1.583 13.176 13.176 0 01-.6-2.549c-.1-.843.161-.942 1.041-1.04a27.926 27.926 0 015.908-.136 3.155 3.155 0 011.739.568 2.205 2.205 0 01.51 2.207zm15.995-1.04a10.353 10.353 0 01-1.761 3.424 4.517 4.517 0 01-3.607 1.642 5.149 5.149 0 01-3.366-1.933c-.676-.773-1.562-2.142-1.268-3.189.285-1.013 1.733-1.7 2.764-1.917a12.113 12.113 0 013.987.068l2.339.3a1.539 1.539 0 01.829.274c.371.331.243.883.083 1.331z" fill="#ccb69a"/><path class="cls-15" d="M56.276 29.58a2.441 2.441 0 001.045-.253 18.194 18.194 0 012.482-.19 16.628 16.628 0 001.845-.6 7.537 7.537 0 014.243.258 10.7 10.7 0 00-8.415-1.272c-.415.113-1.5.1-1.758.443a1.084 1.084 0 00.558 1.614zM40.705 28.236a12.973 12.973 0 011.933.23l5.227.892a2.545 2.545 0 00-.149-1.671 1.114 1.114 0 00-.472-.562 1.715 1.715 0 00-.889-.087c-1.515.086-3.023-.3-4.54-.256a4.063 4.063 0 00-3.263 1.439c.574.362 1.448.003 2.153.015z"/><path d="M48.508 41.8l.132-.6a1.027 1.027 0 00.85 1.6l1.669.444a1.5 1.5 0 00.566.075 1.484 1.484 0 00.486-.182q1.052-.546 2.087-1.124" stroke="#92503f" stroke-width=".473" fill="none" stroke-miterlimit="10"/><path class="cls-17" d="M52.527 44.805c-.982.526-2.183.136-3.258.392a11.089 11.089 0 00-1.709.725 5.593 5.593 0 01-1.656.422.882.882 0 00.456.352 8.056 8.056 0 003.255.7c.719 0 1.438-.095 2.156-.042a8.722 8.722 0 001.206.078c.937-.063 1.79-.677 2.729-.686l-2.138-1.481a2.612 2.612 0 00-.769-.415.868.868 0 00-.821.157"/><path class="cls-17" d="M54.3 48.133a5.914 5.914 0 01-1.625.917 5.7 5.7 0 01-3.471-.422 6.173 6.173 0 01-1.263-.546 6.424 6.424 0 01-1.328-1.232 12.549 12.549 0 004.222.531 23.61 23.61 0 002.174-.173 39.74 39.74 0 001.084-.149 4.342 4.342 0 011.08-.173c.4.06.177.319-.055.573a5.161 5.161 0 01-.818.674z"/><path class="cls-15" d="M56.046 46.817c-1.087-.045-2.1.628-3.193.654a8.829 8.829 0 01-1.343-.148c-1.768-.231-3.7.182-5.246-.738a1.78 1.78 0 01-.989-1.58c.43-.022.618.537.864.907a2.746 2.746 0 002.188.894 20.36 20.36 0 005.59-.047c.59-.115 1.723-.887 2.235-.829.903.102.769.924-.106.887z"/></svg>